<?xml version="1.0" encoding="iso-8859-1"?>
<!-- Uploaded to: SVG Repo, www.svgrepo.com, Generator: SVG Repo Mixer Tools -->
<svg fill="#000000" height="800px" width="800px" version="1.1" id="Layer_1" xmlns="http://www.w3.org/2000/svg" xmlns:xlink="http://www.w3.org/1999/xlink" 
	 viewBox="0 0 512.001 512.001" xml:space="preserve">
<g>
	<g>
		<path d="M436.23,154.751c-16.417-22.54-41.745-37.188-69.492-40.186c-33.547-3.625-67.31-5.575-101.092-5.89
			c-0.105-8.812-1.094-26.776-6.698-45.659C248.242,26.93,225.995,5.181,194.613,0.119c-5.041-0.813-9.783,2.614-10.597,7.653
			c-0.813,5.039,2.614,9.783,7.653,10.597c24.097,3.887,40.728,20.537,49.432,49.487c5.018,16.689,5.929,33.001,6.047,40.814
			c-34.047,0.291-68.075,2.243-101.884,5.895c-27.747,2.998-53.075,17.646-69.492,40.186c-16.385,22.497-22.545,51.03-16.901,78.283
			c0.905,4.366,4.751,7.369,9.04,7.369c0.621,0,1.252-0.063,1.884-0.193c3.38-0.7,6.762-1.373,10.146-2.035
			c-5.663,15.699-8.535,33.099-8.535,51.967c0,93.099,49.768,148.483,91.519,178.552c44.844,32.297,89.161,42.649,91.025,43.075
			c0.675,0.154,1.364,0.232,2.054,0.232s1.378-0.078,2.054-0.232c1.865-0.425,46.181-10.778,91.025-43.075
			c41.75-30.067,91.519-85.453,91.519-178.552c0-18.868-2.872-36.267-8.535-51.966c3.38,0.662,6.759,1.333,10.137,2.033
			c4.995,1.033,9.889-2.178,10.924-7.176C458.774,205.781,452.615,177.248,436.23,154.751z M396.18,391.201
			c-13.804,23.644-33.111,44.546-57.384,62.124c-36.599,26.505-73.779,37.498-82.79,39.899c-9.027-2.404-46.2-13.4-82.791-39.899
			c-24.273-17.578-43.581-38.48-57.385-62.124c-17.212-29.48-25.939-63.48-25.939-101.057c0-21.006,3.95-39.794,11.73-55.937
			c102.593-17.563,206.174-17.563,308.767,0.001c7.781,16.143,11.73,34.931,11.73,55.936
			C422.119,327.72,413.392,361.72,396.18,391.201z M436.376,220.177c-59.871-11.762-120.124-17.644-180.373-17.644
			c-60.25,0-120.503,5.882-180.374,17.644c-1.723-19.288,3.581-38.745,15.087-54.544c13.355-18.336,33.96-30.251,56.535-32.691
			c72.162-7.797,145.341-7.797,217.503,0c22.575,2.439,43.18,14.354,56.535,32.691C432.794,181.432,438.098,200.889,436.376,220.177
			z"/>
	</g>
</g>
</svg>